<svg height="200px" width="200px" version="1.1" id="Layer_1" xmlns="http://www.w3.org/2000/svg" xmlns:xlink="http://www.w3.org/1999/xlink" viewBox="0 0 512.001 512.001" xml:space="preserve" fill="#000000"><g id="SVGRepo_bgCarrier" stroke-width="0"></g><g id="SVGRepo_tracerCarrier" stroke-linecap="round" stroke-linejoin="round"></g><g id="SVGRepo_iconCarrier"> <path style="fill:#7f7a7a;" d="M481.499,301.495L280.717,100.713c-1.441-1.441-3.36-2.303-5.394-2.422l-106.665-6.276 c-2.684-0.152-5.294,0.998-6.981,3.105c-1.687,2.105-2.247,4.897-1.504,7.49l100.708,351.686c0.389,1.358,1.117,2.593,2.114,3.592 l31.056,31.056c1.561,1.561,3.676,2.437,5.883,2.437c2.206,0,4.321-0.876,5.883-2.437l175.685-175.685 C484.748,310.011,484.748,304.743,481.499,301.495z"></path> <path style="fill:#FF1D25;" d="M382.273,405.418L273.612,143.083c-0.779-1.882-2.223-3.413-4.055-4.301l-96.146-46.616 c-2.141-1.037-4.62-1.109-6.814-0.201l-98.375,40.749c-2.195,0.91-3.898,2.714-4.676,4.959L28.524,238.62 c-0.668,1.924-0.606,4.027,0.174,5.911l108.663,262.334c0.844,2.039,2.463,3.658,4.502,4.502c1.019,0.422,2.102,0.633,3.183,0.633 c1.083,0,2.164-0.211,3.183-0.633l229.543-95.08C382.017,414.528,384.033,409.662,382.273,405.418z M142.379,172.62 c1.735-0.719,3.557-1.078,5.381-1.078c1.822,0,3.645,0.359,5.381,1.078c3.47,1.436,6.17,4.139,7.608,7.608 c2.966,7.161-0.447,15.402-7.608,18.368c-7.163,2.967-15.402-0.446-18.369-7.608C131.805,183.828,135.218,175.586,142.379,172.62z"></path> <path style="fill:#BF1D23;" d="M153.139,198.597c-7.163,2.967-15.402-0.446-18.369-7.608c-2.966-7.162,0.447-15.402,7.608-18.368 c0.09-0.038,0.183-0.063,0.274-0.099l-24.974-60.294l-49.455,20.484c-2.195,0.91-3.898,2.714-4.676,4.959L28.524,238.62 c-0.668,1.924-0.606,4.027,0.174,5.911l108.663,262.334c0.844,2.039,2.463,3.658,4.502,4.502c1.019,0.422,2.102,0.633,3.183,0.633 c1.083,0,2.164-0.211,3.183-0.633l115.04-47.651L153.402,198.472C153.312,198.512,153.23,198.56,153.139,198.597z"></path> <g> <path style="fill:#FFFFFF;" d="M160.565,433.54c-1.061,0-2.14-0.204-3.18-0.636c-4.245-1.759-6.261-6.625-4.502-10.869 l86.441-208.686c1.759-4.245,6.627-6.258,10.869-4.502c4.245,1.758,6.261,6.625,4.502,10.869l-86.441,208.686 C166.926,431.605,163.829,433.54,160.565,433.54z"></path> <path style="fill:#FFFFFF;" d="M275.099,393.163c-15.46,0.001-30.156-9.16-36.43-24.308c-4.025-9.716-4.025-20.42-0.001-30.136 c4.025-9.717,11.593-17.285,21.311-21.309c20.061-8.31,43.138,1.251,51.447,21.309c8.308,20.059-1.252,43.139-21.311,51.447 C285.206,392.2,280.111,393.163,275.099,393.163z M275.018,331.05c-2.894,0-5.835,0.556-8.672,1.731 c-5.611,2.324-9.981,6.694-12.306,12.305c-2.325,5.611-2.324,11.792,0,17.403l0,0c4.797,11.583,18.122,17.105,29.708,12.306 c11.583-4.798,17.105-18.125,12.306-29.709C292.432,336.339,283.945,331.05,275.018,331.05z"></path> <path style="fill:#FFFFFF;" d="M132.579,327.338c-15.46,0-30.155-9.16-36.43-24.308c0,0,0,0-0.001,0 c-8.307-20.059,1.253-43.138,21.312-51.447c20.061-8.308,43.139,1.252,51.446,21.311c4.025,9.716,4.025,20.42,0.001,30.136 c-4.025,9.717-11.593,17.285-21.311,21.31C142.686,326.376,137.591,327.338,132.579,327.338z M111.52,296.664 c4.798,11.583,18.124,17.106,29.709,12.305c5.611-2.324,9.981-6.694,12.306-12.305c2.325-5.611,2.324-11.792,0-17.403 c-4.797-11.582-18.122-17.102-29.708-12.306C112.243,271.753,106.724,285.081,111.52,296.664L111.52,296.664z"></path> </g> <g> <path style="fill:#B2B2B2;" d="M157.384,432.904c1.04,0.431,2.119,0.636,3.18,0.636c3.264,0,6.361-1.934,7.689-5.138l40.194-97.037 l-9.004-21.738l-46.561,112.407C151.123,426.279,153.139,431.145,157.384,432.904z"></path> <path style="fill:#B2B2B2;" d="M168.907,303.031c4.024-9.717,4.024-20.42-0.001-30.136c-8.307-20.058-31.385-29.618-51.446-21.311 c-20.058,8.309-29.618,31.387-21.312,51.447c0.001,0,0.001,0,0.001,0c6.275,15.148,20.969,24.308,36.43,24.308 c5.012,0,10.106-0.964,15.017-2.998C157.314,320.316,164.882,312.748,168.907,303.031z M153.536,296.664 c-2.325,5.611-6.695,9.981-12.306,12.305c-11.585,4.801-24.911-0.722-29.709-12.305h0.001 c-4.797-11.584,0.722-24.912,12.306-29.709c11.586-4.796,24.911,0.723,29.708,12.306 C155.858,284.872,155.86,291.053,153.536,296.664z"></path> </g> <path style="fill:#7AC943;" d="M149.168,165.647c-12.341-14.332-27.367-32.169-41.372-49.325 C86.316,90.009,67.236,65.301,63.923,57.304C60.92,50.05,60.92,42.06,63.924,34.808c3.005-7.254,8.654-12.903,15.908-15.907 c7.255-3.005,15.243-3.005,22.496,0c7.253,3.004,12.903,8.654,15.908,15.907c1.349,3.259,5.056,16.856,10.685,72.763l16.046-6.647 c-6.195-60.006-10.054-69.329-11.361-72.484c-4.704-11.358-13.552-20.205-24.911-24.911c-11.358-4.705-23.871-4.705-35.231,0 C62.105,8.234,53.259,17.082,48.552,28.441c-4.705,11.359-4.705,23.871,0,35.231c4.064,9.811,23.529,35.07,43.199,59.295 c20.232,24.918,40.68,48.743,44.807,53.537c0.084,0.098,0.177,0.183,0.265,0.275c1.626,1.723,3.824,2.615,6.043,2.615 c1.922,0,3.854-0.662,5.425-2.014c1.664-1.433,2.613-3.382,2.833-5.405C151.365,169.763,150.733,167.464,149.168,165.647z"></path> </g></svg>